<svg xmlns="http://www.w3.org/2000/svg" width="11.818" height="17.045" viewBox="0 0 11.818 17.045" fill="none">
  <path d="M 11.304 0 C 11.304 0.065 11.308 0.157 11.318 0.278 C 11.327 0.398 11.332 0.485 11.332 0.541 C 11.332 1.53 11.159 2.298 10.812 2.844 C 10.465 3.39 9.977 3.662 9.349 3.662 C 8.877 3.662 8.264 3.5 7.511 3.176 C 6.757 2.853 6.242 2.691 5.964 2.691 C 5.743 2.691 5.56 2.765 5.417 2.913 C 5.273 3.061 5.202 3.246 5.202 3.467 C 5.202 3.828 5.839 4.55 7.116 5.631 L 7.268 5.769 C 7.407 5.88 7.615 6.052 7.893 6.283 C 9.271 7.411 10.236 8.345 10.792 9.084 C 11.134 9.528 11.39 10.019 11.561 10.554 C 11.732 11.091 11.818 11.683 11.818 12.329 C 11.818 13.754 11.304 14.896 10.278 15.755 C 9.252 16.615 7.879 17.045 6.159 17.045 C 5.04 17.045 3.958 16.811 2.913 16.345 C 1.868 15.878 0.897 15.191 0 14.285 C 0.185 13.694 0.511 13.176 0.978 12.732 C 1.444 12.288 2.256 11.766 3.412 11.165 C 3.375 11.312 3.345 11.463 3.322 11.616 C 3.299 11.768 3.287 11.919 3.287 12.067 C 3.287 12.779 3.509 13.363 3.953 13.821 C 4.397 14.279 4.952 14.507 5.618 14.507 C 6.126 14.507 6.547 14.364 6.88 14.077 C 7.213 13.791 7.379 13.434 7.379 13.009 C 7.379 12.686 7.282 12.366 7.088 12.052 C 6.894 11.737 6.566 11.372 6.104 10.956 C 5.882 10.762 5.553 10.48 5.119 10.11 C 3.371 8.603 2.28 7.475 1.846 6.726 C 1.614 6.319 1.439 5.887 1.319 5.429 C 1.198 4.972 1.139 4.507 1.139 4.035 C 1.139 2.834 1.524 1.874 2.297 1.157 C 3.069 0.441 4.102 0.083 5.396 0.083 C 5.896 0.083 6.557 0.159 7.38 0.312 C 8.203 0.464 8.771 0.541 9.086 0.541 C 9.465 0.541 9.839 0.495 10.209 0.403 C 10.579 0.311 10.944 0.176 11.304 0.001 L 11.304 0 Z" fill="currentColor" fill-rule="nonzero"/>
</svg>
